/* XPM */
static char * Apollo_Explorer_24x24_xpm[] = {
"24 24 159 2",
"  	c None",
". 	c #000000",
"+ 	c #330000",
"@ 	c #8A0000",
"# 	c #040000",
"$ 	c #820000",
"% 	c #D00000",
"& 	c #A80000",
"* 	c #900000",
"= 	c #D90000",
"- 	c #740000",
"; 	c #7D0000",
"> 	c #CA0000",
", 	c #C00000",
"' 	c #700000",
") 	c #AD0000",
"! 	c #AE0000",
"~ 	c #2D0000",
"{ 	c #360000",
"] 	c #3E0000",
"^ 	c #940000",
"/ 	c #6E0000",
"( 	c #B00000",
"_ 	c #8E0000",
": 	c #D10000",
"< 	c #310000",
"[ 	c #120000",
"} 	c #D40000",
"| 	c #710000",
"1 	c #B50000",
"2 	c #2E0000",
"3 	c #9E0000",
"4 	c #A20000",
"5 	c #C20000",
"6 	c #D50000",
"7 	c #8B0000",
"8 	c #170000",
"9 	c #D70000",
"0 	c #990000",
"a 	c #5E0000",
"b 	c #B20000",
"c 	c #C60000",
"d 	c #A40000",
"e 	c #320000",
"f 	c #C40000",
"g 	c #383220",
"h 	c #9E8D5F",
"i 	c #BCA76C",
"j 	c #967D39",
"k 	c #B09343",
"l 	c #C3A348",
"m 	c #8C7536",
"n 	c #776534",
"o 	c #756434",
"p 	c #A00000",
"q 	c #870000",
"r 	c #6F0000",
"s 	c #796C4A",
"t 	c #C6B177",
"u 	c #D9C180",
"v 	c #EBCE80",
"w 	c #EACA73",
"x 	c #B99A43",
"y 	c #C09C3B",
"z 	c #B79434",
"A 	c #A78937",
"B 	c #A28A45",
"C 	c #9A8241",
"D 	c #630000",
"E 	c #B7A36D",
"F 	c #EFD48A",
"G 	c #D0B56B",
"H 	c #EFCE74",
"I 	c #E6C467",
"J 	c #DFBB58",
"K 	c #C8A544",
"L 	c #BF9930",
"M 	c #AF8C2B",
"N 	c #977928",
"O 	c #8C763B",
"P 	c #7F6B35",
"Q 	c #B90000",
"R 	c #960000",
"S 	c #78683B",
"T 	c #F7D576",
"U 	c #DCBA5F",
"V 	c #E9C359",
"W 	c #D7B148",
"X 	c #EEC147",
"Y 	c #E8BA3B",
"Z 	c #9B7C26",
"` 	c #AA882A",
" .	c #977825",
"..	c #746231",
"+.	c #816D36",
"@.	c #4F0000",
"#.	c #CD0000",
"$.	c #AC0000",
"%.	c #E0BB54",
"&.	c #E0B84A",
"*.	c #D3AA3B",
"=.	c #EABA37",
"-.	c #D8A92A",
";.	c #DDA91C",
">.	c #9E7917",
",.	c #8C7022",
"'.	c #876C21",
").	c #5A4C26",
"!.	c #766432",
"~.	c #530000",
"{.	c #BE0000",
"].	c #840000",
"^.	c #A6852A",
"/.	c #EBBB36",
"(.	c #E4B128",
"_.	c #DBA616",
":.	c #DFA70E",
"<.	c #C99609",
"[.	c #AC800A",
"}.	c #6A551A",
"|.	c #6F591B",
"1.	c #4C3F1C",
"2.	c #63542A",
"3.	c #890000",
"4.	c #4E3B07",
"5.	c #EDB418",
"6.	c #D6A00C",
"7.	c #C49309",
"8.	c #C3920A",
"9.	c #B58709",
"0.	c #A17808",
"a.	c #4B3A0E",
"b.	c #554415",
"c.	c #392E11",
"d.	c #4D4121",
"e.	c #B08307",
"f.	c #C2910A",
"g.	c #B08409",
"h.	c #9F7708",
"i.	c #8E6A07",
"j.	c #7B5C06",
"k.	c #423105",
"l.	c #3D310F",
"m.	c #282009",
"n.	c #362E17",
"o.	c #0C0903",
"p.	c #5D4402",
"q.	c #9A7308",
"r.	c #896607",
"s.	c #6F5205",
"t.	c #4A3603",
"u.	c #181002",
"v.	c #0F0B03",
"w.	c #0B0802",
"x.	c #0B0904",
"y.	c #151107",
"z.	c #060402",
"A.	c #594103",
"B.	c #2E2101",
"                      . .                       ",
"                  + @ #                         ",
"              . $ % &                           ",
"            . * = = -                           ",
"          . $ = = = ;                           ",
"          . > = = = , .                         ",
"          ' = = = = = ) .                       ",
"      .   * = = = = = = ! ~                     ",
"    . .   * = = = = = = = , {                   ",
"    ] ^ . / = = = = = = = = ( .                 ",
"    _ : < [ } = = = = = = = = |                 ",
"  . ) = 1 2 * 3 * : = = : = = 4 .               ",
"  . 5 6 7 8 . . . } = 9 0 = = a . . . . . . .   ",
"  . b } c d e   . 4 = f . . g h i j k l m n o . ",
"  . p = = = 0 .   . q r s t u v w x y z A B C . ",
"    D = = = ) .     . E F G H I J K L M N O P . ",
"    . Q = = R .       S T U V W X Y Z `  ...+.. ",
"      @.#.= ( $.$ .   . %.&.*.=.-.;.>.,.'.).!.. ",
"        ~.{.= = = ].  . ^./.(._.:.<.[.}.|.1.2.. ",
"          . ' 4 ) 3..   4.5.6.7.8.9.0.a.b.c.d.. ",
"              . . .     . e.f.g.h.i.j.k.l.m.n.o.",
"                          p.q.r.s.t.u.v.w.x.y.z.",
"                          . A.B.. . . . . . .   ",
"                            .                   "};
